<svg xmlns="http://www.w3.org/2000/svg" viewBox="0 0 64 64" width="64" height="64" fill="none">
  <circle cx="32" cy="32" r="30" fill="#161b22" stroke="#30363d" stroke-width="2"/>
  <circle cx="32" cy="32" r="27" fill="#0d1117" stroke="#f0883e" stroke-width="2" stroke-dasharray="8 3"/>
  <circle cx="32" cy="32" r="22" stroke="#d29922" stroke-width="1" stroke-dasharray="2 2" fill="none"/>
  <!-- Pulp Triangles -->
  <path d="M 30 14 L 30 27 L 22 19 Z" fill="#f0883e" opacity="0.9"/>
  <path d="M 34 14 L 42 19 L 34 27 Z" fill="#f0883e" opacity="0.9"/>
  <path d="M 50 30 L 37 30 L 45 22 Z" fill="#f0883e" opacity="0.8"/>
  <path d="M 50 34 L 45 42 L 37 34 Z" fill="#3fb950" opacity="0.9"/>
  <path d="M 34 50 L 34 37 L 42 45 Z" fill="#f0883e" opacity="0.85"/>
  <path d="M 30 50 L 22 45 L 30 37 Z" fill="#f0883e" opacity="0.8"/>
  <path d="M 14 34 L 27 34 L 19 42 Z" fill="#58a6ff" opacity="0.85"/>
  <path d="M 14 30 L 19 22 L 27 30 Z" fill="#f0883e" opacity="0.85"/>
  <!-- Terminal Prompt center -->
  <rect x="23" y="25" width="18" height="14" rx="2" fill="#161b22" stroke="#58a6ff" stroke-width="1"/>
  <path d="M 26 28 L 29 32 L 26 36" stroke="#3fb950" stroke-width="1.5" stroke-linecap="round" stroke-linejoin="round"/>
  <line x1="31" y1="35" x2="37" y2="35" stroke="#f0883e" stroke-width="1.5" stroke-linecap="round"/>
</svg>
